<?xml version="1.0" encoding="UTF-8"?>
<svg width="130px" height="113px" viewBox="0 0 130 113" version="1.1" xmlns="http://www.w3.org/2000/svg" xmlns:xlink="http://www.w3.org/1999/xlink">
    <!-- Generator: Sketch 46.2 (44496) - http://www.bohemiancoding.com/sketch -->
    <title>Index</title>
    <desc>Created with Sketch.</desc>
    <defs></defs>
    <g id="Page-1" stroke="none" stroke-width="1" fill="none" fill-rule="evenodd">
        <g id="Palette" transform="translate(-1277.000000, -10.000000)" fill-rule="nonzero" fill="#009AB0">
            <g id="Index" transform="translate(1277.000000, 10.000000)">
                <path d="M129.744815,30.1954776 C129.744055,30.1437817 129.741014,30.0925926 129.736959,30.0414035 C129.734678,30.0109942 129.732904,29.980078 129.729357,29.949922 C129.723528,29.8992398 129.715166,29.8488109 129.706296,29.7986355 C129.701228,29.7697466 129.69768,29.7403509 129.691598,29.7117154 C129.675887,29.6374659 129.657135,29.5639766 129.634834,29.4912476 C129.625712,29.461345 129.613801,29.4322027 129.603411,29.4025536 C129.587953,29.3576998 129.572495,29.3130994 129.554503,29.2690058 C129.541072,29.2363158 129.525614,29.2051462 129.510663,29.1737232 C129.492417,29.1339376 129.473918,29.094152 129.453392,29.0551267 C129.43692,29.0239571 129.418674,28.9935478 129.400936,28.9631384 C129.379142,28.9253801 129.356842,28.8881287 129.333021,28.851384 C129.313509,28.8217349 129.292729,28.7925926 129.272203,28.7637037 C129.247115,28.7284795 129.22152,28.6937622 129.194405,28.6595517 C129.171852,28.6311696 129.148285,28.6032943 129.124464,28.5756725 C129.109513,28.5584405 129.096082,28.5399415 129.08037,28.522963 L103.995945,1.07446394 C103.513957,0.54711501 102.832281,0.246569201 102.117914,0.246569201 L75.8513255,0.246569201 C75.8277583,0.246569201 75.8039376,0.246569201 75.7796101,0.246569201 L53.9669786,0.246569201 C53.9431579,0.246569201 53.9190838,0.246569201 53.8952632,0.246569201 L27.6284211,0.246569201 C26.9140546,0.246569201 26.2326316,0.54711501 25.7503899,1.07446394 L0.665964912,28.5222027 C0.650506823,28.5391813 0.636822612,28.5576803 0.621871345,28.5749123 C0.598050682,28.6022807 0.574483431,28.6301559 0.551929825,28.6587914 C0.525068226,28.6930019 0.499220273,28.7277193 0.474132554,28.7629435 C0.453606238,28.7918324 0.432826511,28.8209747 0.41331384,28.8506238 C0.389493177,28.8873684 0.367192982,28.9248733 0.34539961,28.9623782 C0.327660819,28.9927875 0.309415205,29.0231969 0.29294347,29.0543665 C0.272417154,29.0933918 0.25417154,29.132924 0.235925926,29.1727096 C0.22122807,29.2048928 0.205769981,29.2360624 0.19208577,29.268499 C0.174093567,29.3123392 0.1591423,29.3566862 0.143430799,29.4012865 C0.133040936,29.4309357 0.121130604,29.4603314 0.111754386,29.4904873 C0.089454191,29.5632164 0.0707017544,29.6367057 0.0549902534,29.7107018 C0.0489083821,29.7393372 0.0453606238,29.7692398 0.0402923977,29.7981287 C0.0316764133,29.8483041 0.0230604288,29.8984795 0.0172319688,29.9489084 C0.0139376218,29.9790643 0.0121637427,30.0099805 0.00962962963,30.0403899 C0.00557504873,30.0918324 0.00278752437,30.1432749 0.00177387914,30.1944639 C0.00202729045,30.2096686 0,30.2236062 0,30.2383041 C0,30.2550292 0.00228070175,30.2712476 0.00253411306,30.2877193 C0.00354775828,30.338655 0.00608187135,30.3895906 0.0101364522,30.4405263 C0.0126705653,30.4716959 0.0149512671,30.5033723 0.0184990253,30.5342885 C0.0240740741,30.5831969 0.0321832359,30.631345 0.040545809,30.68 C0.0458674464,30.7109162 0.0504288499,30.7423392 0.0570175439,30.7730019 C0.0676608187,30.822924 0.0813450292,30.8720858 0.0952826511,30.9212476 C0.10288499,30.9483626 0.10871345,30.9764912 0.117329435,31.0033528 C0.140136452,31.075575 0.166491228,31.1472904 0.19588694,31.2177388 C0.209064327,31.2494152 0.224775828,31.2798246 0.239473684,31.3107407 C0.258226121,31.3510331 0.276471735,31.3915789 0.297504873,31.4311111 C0.315243665,31.4645614 0.335263158,31.4959844 0.354269006,31.5284211 C0.375302144,31.564152 0.39582846,31.599883 0.418635478,31.6346004 C0.439668616,31.6667836 0.462982456,31.6976998 0.485536062,31.7288694 C0.503021442,31.7529435 0.518479532,31.7780312 0.537231969,31.801345 L62.8639961,111.793918 C63.3609357,112.431754 64.1092593,112.77462 64.8722807,112.774366 C64.8730409,112.774366 64.8738012,112.774366 64.8745614,112.774366 C65.6375828,112.774366 66.3859064,112.431501 66.882846,111.793918 L129.20961,31.801345 C129.227856,31.7777778 129.243821,31.7526901 129.261306,31.7288694 C129.28386,31.6976998 129.307173,31.6667836 129.328207,31.6346004 C129.351014,31.5996296 129.371793,31.564152 129.392573,31.5284211 C129.411579,31.4959844 129.431598,31.464308 129.449337,31.4308577 C129.47037,31.3910721 129.488616,31.3507797 129.507368,31.3104873 C129.521813,31.2795712 129.537524,31.2491618 129.550955,31.2174854 C129.580351,31.1467836 129.606706,31.0753216 129.629513,31.002846 C129.637875,30.9762378 129.643704,30.948616 129.651306,30.9217544 C129.66499,30.8720858 129.678928,30.8226706 129.689825,30.7727485 C129.696413,30.7420858 129.700975,30.7106628 129.706296,30.6797466 C129.714912,30.631345 129.722768,30.5826901 129.728343,30.5340351 C129.731891,30.5031189 129.734172,30.4716959 129.736706,30.4402729 C129.74076,30.3893372 129.743294,30.3384016 129.744308,30.2874659 C129.744561,30.2709942 129.746842,30.2547758 129.746842,30.2380507 C129.746842,30.2236062 129.744815,30.2096686 129.744815,30.1954776 Z M100.996823,5.3345614 L121.43115,27.694308 L95.6691033,27.694308 L80.6005068,5.3345614 L100.996823,5.3345614 Z M55.2821832,5.3345614 L74.4644055,5.3345614 L89.5332554,27.694308 L40.2133333,27.694308 L55.2821832,5.3345614 Z M28.7497661,5.3345614 L49.1460819,5.3345614 L34.0774854,27.694308 L8.3154386,27.694308 L28.7497661,5.3345614 Z M7.75159844,32.7823002 L33.6565692,32.7823002 L56.8462378,95.7922612 L7.75159844,32.7823002 Z M64.8732943,102.871559 L39.0780507,32.7823002 L90.6682846,32.7823002 L64.8732943,102.871559 Z M72.9006043,95.7922612 L96.0900195,32.7823002 L121.99499,32.7823002 L72.9006043,95.7922612 Z" id="Shape"></path>
                <path d="M68.2246589,36.539883 L51.9409552,36.539883 C50.5357895,36.539883 49.3969591,37.6789669 49.3969591,39.0838791 C49.3969591,40.4887914 50.5360429,41.6278752 51.9409552,41.6278752 L68.2246589,41.6278752 C69.6298246,41.6278752 70.768655,40.4887914 70.768655,39.0838791 C70.768655,37.6789669 69.6295712,36.539883 68.2246589,36.539883 Z" id="Shape"></path>
                <path d="M77.8053801,36.539883 C74.5315595,36.539883 74.5259844,41.6278752 77.8053801,41.6278752 C81.0794542,41.6278752 81.0850292,36.539883 77.8053801,36.539883 Z" id="Shape"></path>
            </g>
        </g>
    </g>
</svg>