<?xml version="1.0" encoding="iso-8859-1"?>
<!-- Generator: Adobe Illustrator 19.0.0, SVG Export Plug-In . SVG Version: 6.00 Build 0)  -->
<svg version="1.1" id="Capa_1" xmlns="http://www.w3.org/2000/svg"  x="0px" y="0px"
	 viewBox="0 0 512.001 512.001" style="enable-background:new 0 0 512.001 512.001;" xml:space="preserve">
<polygon style="fill:#FFABCD;" points="402.974,44.011 299.189,44.011 256.01,44.011 212.811,44.011 109.026,44.011 10.039,152.325 
	255.99,467.988 256.01,467.988 501.961,152.325 "/>
<g>
	<polygon style="fill:#FF6BA6;" points="501.961,152.325 256.01,467.988 372.184,152.325 	"/>
	<polygon style="fill:#FF6BA6;" points="372.184,152.325 256.01,467.988 255.99,467.988 139.816,152.325 	"/>
	<polygon style="fill:#FF6BA6;" points="139.816,152.325 255.99,467.988 10.039,152.325 	"/>
</g>
<path d="M0.01,152.519c0.004,0.201,0.014,0.402,0.03,0.603c0.01,0.123,0.019,0.248,0.033,0.37c0.022,0.193,0.054,0.384,0.087,0.575
	c0.021,0.122,0.039,0.246,0.065,0.367c0.042,0.197,0.096,0.391,0.151,0.585c0.03,0.107,0.053,0.218,0.087,0.324
	c0.09,0.285,0.194,0.568,0.31,0.846c0.052,0.125,0.114,0.245,0.172,0.367c0.074,0.159,0.146,0.319,0.229,0.475
	c0.07,0.132,0.149,0.256,0.224,0.384c0.083,0.141,0.164,0.282,0.254,0.419c0.083,0.128,0.175,0.249,0.264,0.372
	c0.069,0.095,0.131,0.194,0.204,0.286l245.951,315.663c1.961,2.517,4.914,3.87,7.925,3.869c0.003,0,0.006,0,0.009,0
	c3.011,0,5.964-1.353,7.925-3.869l245.951-315.663c0.072-0.093,0.135-0.192,0.204-0.286c0.089-0.123,0.181-0.245,0.264-0.372
	c0.09-0.138,0.172-0.278,0.254-0.419c0.075-0.127,0.154-0.253,0.224-0.384c0.083-0.157,0.155-0.316,0.229-0.475
	c0.057-0.122,0.119-0.242,0.172-0.367c0.116-0.279,0.22-0.561,0.31-0.847c0.033-0.105,0.056-0.214,0.086-0.32
	c0.054-0.196,0.109-0.391,0.152-0.588c0.026-0.121,0.044-0.245,0.065-0.367c0.034-0.191,0.065-0.382,0.087-0.575
	c0.014-0.122,0.023-0.246,0.033-0.37c0.016-0.201,0.026-0.402,0.03-0.603c0.001-0.065,0.01-0.13,0.01-0.195
	c0-0.057-0.008-0.112-0.008-0.169c-0.003-0.204-0.015-0.406-0.031-0.608c-0.009-0.12-0.016-0.242-0.03-0.361
	c-0.023-0.2-0.056-0.399-0.091-0.597c-0.02-0.114-0.034-0.23-0.058-0.343c-0.062-0.293-0.136-0.583-0.224-0.87
	c-0.036-0.118-0.083-0.233-0.124-0.35c-0.061-0.177-0.121-0.353-0.193-0.527c-0.053-0.129-0.114-0.252-0.173-0.376
	c-0.072-0.157-0.145-0.314-0.226-0.468c-0.065-0.123-0.137-0.243-0.207-0.363c-0.086-0.149-0.174-0.296-0.268-0.441
	c-0.077-0.117-0.159-0.232-0.24-0.346c-0.099-0.139-0.2-0.276-0.307-0.411c-0.089-0.112-0.182-0.222-0.276-0.331
	c-0.059-0.068-0.112-0.141-0.174-0.208L410.384,37.24c-1.902-2.081-4.592-3.267-7.411-3.267H299.321c-0.093,0-0.187,0-0.283,0
	h-86.076c-0.094,0-0.189,0-0.283,0H109.026c-2.819,0-5.509,1.186-7.411,3.267L2.628,145.553c-0.061,0.067-0.114,0.14-0.174,0.208
	c-0.094,0.108-0.187,0.218-0.276,0.331c-0.106,0.135-0.208,0.272-0.307,0.411c-0.081,0.114-0.163,0.229-0.24,0.346
	c-0.094,0.145-0.182,0.293-0.268,0.441c-0.07,0.12-0.142,0.24-0.207,0.363c-0.081,0.154-0.153,0.31-0.225,0.467
	c-0.058,0.126-0.119,0.25-0.173,0.378c-0.071,0.173-0.131,0.348-0.192,0.524c-0.041,0.117-0.088,0.233-0.125,0.352
	c-0.088,0.287-0.162,0.577-0.224,0.869c-0.024,0.113-0.038,0.231-0.058,0.345c-0.034,0.198-0.068,0.396-0.091,0.595
	c-0.013,0.119-0.02,0.241-0.03,0.361c-0.016,0.203-0.027,0.406-0.031,0.608C0.008,152.212,0,152.267,0,152.325
	C0,152.391,0.009,152.454,0.01,152.519z M30.588,162.364h102.225l91.51,248.647L30.588,162.364z M256,438.947L154.208,162.364
	h203.583L256,438.947z M379.186,162.364h102.225L287.677,411.011L379.186,162.364z M398.549,54.051l80.637,88.235H377.525
	l-59.463-88.235C318.061,54.051,398.549,54.051,398.549,54.051z M218.152,54.051h75.696l59.464,88.235H158.688L218.152,54.051z
	 M113.451,54.051h80.487l-59.463,88.235H32.814L113.451,54.051z"/>
<path d="M269.225,177.192h-64.258c-5.545,0-10.039,4.495-10.039,10.039c0,5.545,4.495,10.039,10.039,10.039h64.258
	c5.545,0,10.039-4.495,10.039-10.039C279.264,181.686,274.769,177.192,269.225,177.192z"/>
<path d="M307.032,177.192c-12.919,0-12.941,20.078,0,20.078C319.952,197.27,319.974,177.192,307.032,177.192z"/>
<g>
</g>
<g>
</g>
<g>
</g>
<g>
</g>
<g>
</g>
<g>
</g>
<g>
</g>
<g>
</g>
<g>
</g>
<g>
</g>
<g>
</g>
<g>
</g>
<g>
</g>
<g>
</g>
<g>
</g>
</svg>
