<?xml version="1.0" encoding="UTF-8"?>
<svg width="600px" height="600px" viewBox="0 0 600 600" version="1.1"
     xmlns="http://www.w3.org/2000/svg">
    <!-- Generator: Sketch 46.2 (44496) - http://www.bohemiancoding.com/sketch -->
    <title>user-circle-regular</title>
    <desc>Created with Sketch.</desc>
    <defs></defs>
    <g id="Page-1" stroke="none" stroke-width="1" fill="none"
       fill-rule="evenodd" fill-opacity="0.5">
        <g id="user-circle-regular" fill-rule="nonzero" fill="#009AB0">
            <path d="M300,116.129032 C235.887097,116.129032 183.870968,168.145161 183.870968,232.258065 C183.870968,296.370968 235.887097,348.387097 300,348.387097 C364.112903,348.387097 416.129032,296.370968 416.129032,232.258065 C416.129032,168.145161 364.112903,116.129032 300,116.129032 Z M300,290.322581 C267.943548,290.322581 241.935484,264.314516 241.935484,232.258065 C241.935484,200.201613 267.943548,174.193548 300,174.193548 C332.056452,174.193548 358.064516,200.201613 358.064516,232.258065 C358.064516,264.314516 332.056452,290.322581 300,290.322581 Z M300,0 C134.274194,0 0,134.274194 0,300 C0,465.725806 134.274194,600 300,600 C465.725806,600 600,465.725806 600,300 C600,134.274194 465.725806,0 300,0 Z M300,541.935484 C239.879032,541.935484 184.959677,519.798387 142.620968,483.387097 C160.645161,455.564516 191.491935,436.693548 226.814516,435.604839 C251.975806,443.346774 275.927419,447.217742 300,447.217742 C324.072581,447.217742 348.024194,443.467742 373.185484,435.604839 C408.508065,436.814516 439.354839,455.564516 457.379032,483.387097 C415.040323,519.798387 360.120968,541.935484 300,541.935484 Z M496.814516,440.201613 C467.298387,402.217742 421.693548,377.419355 369.677419,377.419355 C357.33871,377.419355 338.225806,389.032258 300,389.032258 C261.895161,389.032258 242.66129,377.419355 230.322581,377.419355 C178.427419,377.419355 132.822581,402.217742 103.185484,440.201613 C74.8790323,400.645161 58.0645161,352.258065 58.0645161,300 C58.0645161,166.572581 166.572581,58.0645161 300,58.0645161 C433.427419,58.0645161 541.935484,166.572581 541.935484,300 C541.935484,352.258065 525.120968,400.645161 496.814516,440.201613 Z"
                  id="Shape"></path>
        </g>
    </g>
</svg>
